<svg xmlns="http://www.w3.org/2000/svg" viewBox="0 0 1600 900" preserveAspectRatio="xMidYMid slice">
  <defs>
    <linearGradient id="sky" x1="0" y1="0" x2="0" y2="1">
      <stop offset="0%" stop-color="#f6d283"/>
      <stop offset="30%" stop-color="#e0954a"/>
      <stop offset="58%" stop-color="#4f7a3f"/>
      <stop offset="100%" stop-color="#122c1a"/>
    </linearGradient>
    <linearGradient id="glow" x1="0" y1="0" x2="0" y2="1">
      <stop offset="0%" stop-color="#fff3c9" stop-opacity="0.9"/>
      <stop offset="100%" stop-color="#fff3c9" stop-opacity="0"/>
    </linearGradient>
    <linearGradient id="water" x1="0" y1="0" x2="0" y2="1">
      <stop offset="0%" stop-color="#1c3d24" stop-opacity="0.9"/>
      <stop offset="100%" stop-color="#0b2013" stop-opacity="0.95"/>
    </linearGradient>
  </defs>

  <rect width="1600" height="900" fill="url(#sky)"/>
  <circle cx="1220" cy="300" r="230" fill="url(#glow)"/>
  <circle cx="1220" cy="300" r="90" fill="#fff6da" opacity="0.95"/>

  <ellipse cx="260" cy="180" rx="180" ry="26" fill="#ffffff" opacity="0.14"/>
  <ellipse cx="520" cy="240" rx="130" ry="18" fill="#ffffff" opacity="0.10"/>
  <ellipse cx="900" cy="150" rx="150" ry="20" fill="#ffffff" opacity="0.12"/>

  <rect x="0" y="660" width="1600" height="240" fill="url(#water)"/>

  <g fill="#2a4d30" opacity="0.75">
    <rect x="-20" y="520" width="90" height="180"/>
    <rect x="70" y="480" width="70" height="220"/>
    <rect x="150" y="540" width="100" height="160"/>
    <rect x="900" y="500" width="80" height="200"/>
    <rect x="990" y="470" width="60" height="230"/>
    <rect x="1400" y="530" width="90" height="170"/>
    <rect x="1500" y="490" width="100" height="210"/>
  </g>

  <g fill="#0f2a17">
    <rect x="0" y="560" width="90" height="340"/>
    <rect x="95" y="480" width="60" height="420"/>
    <rect x="160" y="600" width="110" height="300"/>
    <rect x="275" y="440" width="70" height="460"/>
    <rect x="350" y="520" width="130" height="380"/>
    <rect x="485" y="580" width="90" height="320"/>
    <rect x="580" y="380" width="150" height="520"/>
    <rect x="735" y="600" width="80" height="300"/>
    <rect x="820" y="540" width="120" height="360"/>
    <rect x="945" y="600" width="100" height="300"/>
    <rect x="1050" y="460" width="70" height="440"/>
    <rect x="1125" y="620" width="140" height="280"/>
    <rect x="1270" y="540" width="90" height="360"/>
    <rect x="1365" y="440" width="140" height="460"/>
    <rect x="1510" y="560" width="90" height="340"/>
  </g>

  <g fill="#ffe49a" opacity="0.85">
    <rect x="20" y="600" width="8" height="12"/><rect x="40" y="640" width="8" height="12"/><rect x="60" y="600" width="8" height="12"/>
    <rect x="110" y="520" width="8" height="12"/><rect x="110" y="560" width="8" height="12"/><rect x="130" y="600" width="8" height="12"/>
    <rect x="190" y="640" width="8" height="12"/><rect x="220" y="660" width="8" height="12"/>
    <rect x="295" y="480" width="8" height="12"/><rect x="295" y="520" width="8" height="12"/><rect x="315" y="560" width="8" height="12"/>
    <rect x="380" y="560" width="8" height="12"/><rect x="410" y="600" width="8" height="12"/><rect x="440" y="640" width="8" height="12"/>
    <rect x="605" y="420" width="8" height="12"/><rect x="605" y="460" width="8" height="12"/><rect x="630" y="500" width="8" height="12"/><rect x="660" y="540" width="8" height="12"/><rect x="690" y="580" width="8" height="12"/>
    <rect x="850" y="580" width="8" height="12"/><rect x="880" y="620" width="8" height="12"/><rect x="910" y="600" width="8" height="12"/>
    <rect x="1070" y="500" width="8" height="12"/><rect x="1070" y="540" width="8" height="12"/><rect x="1090" y="580" width="8" height="12"/>
    <rect x="1150" y="660" width="8" height="12"/><rect x="1180" y="680" width="8" height="12"/><rect x="1220" y="660" width="8" height="12"/>
    <rect x="1390" y="480" width="8" height="12"/><rect x="1390" y="520" width="8" height="12"/><rect x="1420" y="560" width="8" height="12"/><rect x="1450" y="600" width="8" height="12"/>
    <rect x="1530" y="600" width="8" height="12"/><rect x="1560" y="640" width="8" height="12"/>
  </g>
</svg>
