<?xml version="1.0" encoding="UTF-8"?>
<svg id="Layer_1" data-name="Layer 1" xmlns="http://www.w3.org/2000/svg" viewBox="0 0 208.62 35">
  <defs>
    <style>
      .cls-1 {
        fill: #8b0;
      }

      .cls-1, .cls-2 {
        fill-rule: evenodd;
      }

      .cls-2 {
        fill: #580;
      }
    </style>
  </defs>
  <g id="Symbols">
    <g id="header-logo-desktop-regions-standard">
      <g id="Regions-Logo">
        <path id="pyramid" class="cls-1" d="M0,34.41l13.03-17.58,7.93,17.58H0ZM13.51,16.25l6.53-8.91,3.32,27.08-9.86-18.17ZM25.4,0l4.96,6.67-4.96,27.74-4.93-27.76L25.4,0ZM27.55,34.41l3.24-27.12,6.6,8.89-9.84,18.22ZM30,34.41l7.81-17.64,13.08,17.64h-20.89Z"/>
        <g id="regions">
          <path id="R" class="cls-2" d="M68.86,21.33c4.79.34,6.99-1.14,6.99-5.24,0-3.17-1.81-4.9-5.26-4.9h-1.73v10.14M63.29,13.89c0-2.07-.47-2.87-3.2-3.38v-.72h12c6.99,0,9.8,2.75,9.8,6.21,0,2.53-1.47,4.86-5.09,5.87v.09c2.8.63,5.52,8.54,7.81,10.77.65.64,1.21.89,2.29,1.06v.72h-7.3c-2.76-3.21-4.57-8.75-6.52-10.65-1.12-1.1-1.99-1.14-4.23-1.14v7.61c0,2.2.91,3.13,3.24,3.46v.72h-12v-.72c2.08-.17,3.2-1.18,3.2-3.17V13.89"/>
          <path id="E" class="cls-2" d="M103.44,27.91h-.63c-.23-1.66-1.1-2.45-2.7-2.45h-3.44v5.62c0,1.73.73,2.35,2.67,2.35h1.13c2.4,0,3.47-1.73,4.1-3.56h.57l-.37,4.64h-14.89v-.56c2.17-.45,2.47-1.11,2.47-3.07v-12.29c0-1.67-.4-2.26-2.47-2.65v-.55h14.65v4.24h-.57c-.64-2.45-1.37-3.17-3.54-3.17h-3.77v7.91h3.44c1.57,0,2.3-.65,2.7-2.39h.63v5.92"/>
          <path id="G" class="cls-2" d="M127.07,33.63c-1.87.88-4.64,1.37-7.58,1.37-7.05,0-10.62-5-10.62-9.9,0-5.85,4.5-10.2,10.62-10.2,2.97,0,4.31,1.14,5.57,1.14.53,0,.9-.17,1.4-.65h.6v5.36h-.6c-1.17-2.91-3.77-4.77-6.71-4.77-4,0-6.21,3.53-6.21,9.45s2.68,8.5,6.28,8.5c1.77,0,2.94-.46,2.94-2.03v-2.84c0-1.24-.5-2.06-2-2.36v-.56h8.21v.56c-1.44.39-1.9,1.11-1.9,2.88v4.05"/>
          <path id="I" class="cls-2" d="M139.62,31.27c0,1.7.44,2.19,2.47,2.68v.56h-9.24v-.56c2.4-.59,2.46-1.24,2.46-3.1v-12.22c0-1.7-.43-2.19-2.46-2.68v-.55h9.24v.55c-2.34.52-2.47,1.24-2.47,3.07v12.25"/>
          <path id="O" class="cls-2" d="M157.18,15.98c-3.84,0-5.94,3.1-5.94,9.15,0,4.61,1.54,8.79,5.94,8.79,3.27,0,5.97-2.52,5.97-8.83,0-5.36-1.7-9.12-5.97-9.12M157.18,35c-6.17,0-10.61-4.18-10.61-10.03s4.44-10.07,10.61-10.07,10.65,4.22,10.65,10.07-4.44,10.03-10.65,10.03"/>
          <path id="N" class="cls-2" d="M189.83,34.74h-.64l-14.06-15.53v11.7c0,2.1.64,2.68,2.87,3.04v.56h-6.74v-.56c2.1-.32,2.6-1.43,2.57-3.3v-12.81c-1.5-1.5-1.8-1.73-2.61-1.9v-.55h5.87l11.42,12.81v-8.6c0-2.32-.4-3.2-2.48-3.66v-.55h6.61v.55c-2.23.13-2.83,1.44-2.83,3.14v15.66"/>
          <path id="S" class="cls-2" d="M207.48,19.93h-.56c-.74-2.22-2.84-3.95-4.84-3.95-1.76,0-3.2,1.14-3.2,2.58,0,.72.37,1.44.97,2.03.97.95,5.44,3.26,6.65,4.44,1.47,1.44,2.13,2.75,2.13,4.41,0,4.22-3.87,5.56-6.28,5.56s-3.77-.75-4.77-.75c-.43,0-.8.23-1,.62h-.57v-5.75h.57c.57,2.84,2.44,4.8,5.24,4.8,2.1,0,3.6-1.14,3.6-2.71,0-.62-.27-1.47-1-2.19-1.5-1.47-4.94-2.88-6.57-4.48-1.17-1.14-1.74-2.55-1.74-4.05,0-3.3,2.53-5.59,6.14-5.59.74,0,1.4.13,2,.26.61.13,1.17.26,1.67.26.3,0,.63-.16,1-.52h.56v5.03"/>
        </g>
      </g>
    </g>
  </g>
</svg>